# xmcd
#
# Track frame offsets: 
#        150
#        25808
#        64811
#        102099
#        126287
#        152983
#
# Disc length: 2410 seconds
#
# Revision: 0
# Processed by: cddbd v1.5.2PL0 Copyright (c) Steve Scherf et al.
# Submitted via: ExactAudioCopy v0.99pb3
#
DISCID=4a096806
DTITLE=Jan Kyks Skrzek - Spiewam Piesn Dla bBuesa
DYEAR=2006
DGENRE=Blues
TTITLE0=Kobieta i pieni¹dze
TTITLE1=Spiewam piesn dla bluesa
TTITLE2=Ty kroilas nam  chleb
TTITLE3=Wczoraj by³em w kinie
TTITLE4=Bo takie s¹ dziewczyny
TTITLE5=Blues kota i psa
EXTD=
EXTT0=
EXTT1=
EXTT2=
EXTT3=
EXTT4=
EXTT5=
PLAYORDER=
